<?xml version="1.0" encoding="UTF-8"?>
<svg width="1200pt" height="1200pt" version="1.1" viewBox="0 0 1200 1200" xmlns="http://www.w3.org/2000/svg">
 <g fill="#fff">
  <path d="m1025.6 286.88-225-225c-3.3867-3.6445-8.1523-5.6875-13.125-5.625h-546.38c-19.164 0.097656-37.516 7.7539-51.066 21.309-13.555 13.551-21.211 31.902-21.309 51.066v358.88c0 6.6992 3.5742 12.887 9.375 16.238 5.8008 3.3477 12.949 3.3477 18.75 0 5.8008-3.3516 9.375-9.5391 9.375-16.238v-358.88c0-9.25 3.6758-18.121 10.215-24.66 6.5391-6.5391 15.41-10.215 24.66-10.215h527.62v206.25c0 4.9727 1.9766 9.7422 5.4922 13.258 3.5156 3.5156 8.2852 5.4922 13.258 5.4922h206.25v752.62c0 9.25-3.6758 18.121-10.215 24.66-6.5391 6.5391-15.41 10.215-24.66 10.215h-717.75c-9.25 0-18.121-3.6758-24.66-10.215-6.5391-6.5391-10.215-15.41-10.215-24.66v-96.375c0-6.6992-3.5742-12.887-9.375-16.238-5.8008-3.3477-12.949-3.3477-18.75 0-5.8008 3.3516-9.375 9.5391-9.375 16.238v96.375c0.097656 19.164 7.7539 37.516 21.309 51.066 13.551 13.555 31.902 21.211 51.066 21.309h717.75c19.164-0.097656 37.516-7.7539 51.066-21.309 13.555-13.551 21.211-31.902 21.309-51.066v-771.38c0.0625-4.9727-1.9805-9.7383-5.625-13.125zm-219.38-166.5 160.88 160.88h-160.88z"/>
  <path d="m881.25 858v-253.5c0.10156-16.141-6.2656-31.652-17.684-43.066-11.414-11.418-26.926-17.785-43.066-17.684h-666c-16.141-0.10156-31.652 6.2656-43.066 17.684-11.418 11.414-17.785 26.926-17.684 43.066v253.5c-0.10156 16.141 6.2656 31.652 17.684 43.066 11.414 11.418 26.926 17.785 43.066 17.684h666c16.141 0.10156 31.652-6.2656 43.066-17.684 11.418-11.414 17.785-26.926 17.684-43.066zm-508.88-28.875h-141v-195.75h137.62v31.125h-104.62v51.75h93.75v29.25h-93.75v52.5h108zm157.88 0-48-75-48 75h-41.25l67.125-100.5-62.25-95.25h40.875l43.5 66 42.75-66h40.875l-62.25 95.25 67.125 100.5zm213.38 0h-141v-195.75h137.62v31.125h-102.75v51.75h93.75v29.25h-93.75v52.5h108z"/>
 </g>
</svg>
