<?xml version="1.0" encoding="UTF-8"?>
<svg width="1200pt" height="1200pt" version="1.1" viewBox="0 0 1200 1200" xmlns="http://www.w3.org/2000/svg">
 <g fill="#fff">
  <path d="m1068.8 1185.9h-937.5c-12.891 0-23.438-10.547-23.438-23.438v-1125c0-12.891 10.547-23.438 23.438-23.438h656.25c6.3281 0 12.188 2.5781 16.641 6.7969l281.25 281.25c4.4531 4.4531 6.7969 10.312 6.7969 16.641v843.75c0 12.891-10.547 23.438-23.438 23.438zm-914.06-46.875h890.62v-810.7l-267.42-267.42h-623.2z"/>
  <path d="m1068.8 342.19h-281.25c-12.891 0-23.438-10.547-23.438-23.438v-281.25c0-9.375 5.625-18.047 14.531-21.562 8.6719-3.5156 18.75-1.6406 25.547 5.1562l281.25 281.25c6.7969 6.7969 8.6719 16.875 5.1562 25.547s-12.422 14.297-21.797 14.297zm-257.81-46.875h201.33l-201.33-201.33z"/>
  <path d="m600 248.44h-281.25c-12.891 0-23.438-10.547-23.438-23.438s10.547-23.438 23.438-23.438h281.25c12.891 0 23.438 10.547 23.438 23.438s-10.547 23.438-23.438 23.438z"/>
  <path d="m600 435.94h-281.25c-12.891 0-23.438-10.547-23.438-23.438s10.547-23.438 23.438-23.438h281.25c12.891 0 23.438 10.547 23.438 23.438s-10.547 23.438-23.438 23.438z"/>
  <path d="m881.25 623.44h-562.5c-12.891 0-23.438-10.547-23.438-23.438s10.547-23.438 23.438-23.438h562.5c12.891 0 23.438 10.547 23.438 23.438s-10.547 23.438-23.438 23.438z"/>
  <path d="m881.25 810.94h-562.5c-12.891 0-23.438-10.547-23.438-23.438s10.547-23.438 23.438-23.438h562.5c12.891 0 23.438 10.547 23.438 23.438s-10.547 23.438-23.438 23.438z"/>
  <path d="m881.25 998.44h-562.5c-12.891 0-23.438-10.547-23.438-23.438s10.547-23.438 23.438-23.438h562.5c12.891 0 23.438 10.547 23.438 23.438s-10.547 23.438-23.438 23.438z"/>
 </g>
</svg>
