<?xml version="1.0" encoding="UTF-8"?>
<svg width="1200pt" height="1200pt" version="1.1" viewBox="0 0 1200 1200" xmlns="http://www.w3.org/2000/svg">
 <path d="m1007 348.4h-377c-18.398 0-35.199-9.3984-45-25l-55.801-89.801c-17-27.602-46.602-44-79-44l-257.2 0.003906c-51.199-0.20312-93 41.598-93 92.797v635.2c0 51.199 41.801 93 93 93h814c51.199 0 93-41.801 93-93v-476.2c0-51.398-41.801-93-93-93zm53 569.2c0 29.199-23.801 53-53 53h-814c-29.199 0-53-23.801-53-53v-635.2c0-29.199 23.801-53 53-53h257.2c18.398 0 35.199 9.3984 45 25l55.801 89.801c0.80078 1.3984 1.8008 2.6016 2.8008 4h-255.4c-11 0-20 9-20 20s9 20 20 20h708.6c29.199 0 53 23.801 53 53z" fill="#fff"/>
</svg>
