<?xml version="1.0" encoding="UTF-8"?>
<svg width="1200pt" height="1200pt" version="1.1" viewBox="0 0 1200 1200" xmlns="http://www.w3.org/2000/svg">
 <g fill="#fff">
  <path d="m1025.6 286.88-225-225c-3.3867-3.6445-8.1523-5.6875-13.125-5.625h-546.38c-19.164 0.097656-37.516 7.7539-51.066 21.309-13.555 13.551-21.211 31.902-21.309 51.066v358.88c0 6.6992 3.5742 12.887 9.375 16.238 5.8008 3.3477 12.949 3.3477 18.75 0 5.8008-3.3516 9.375-9.5391 9.375-16.238v-358.88c0-9.25 3.6758-18.121 10.215-24.66 6.5391-6.5391 15.41-10.215 24.66-10.215h527.62v206.25c0 4.9727 1.9766 9.7422 5.4922 13.258 3.5156 3.5156 8.2852 5.4922 13.258 5.4922h206.25v752.62c0 9.25-3.6758 18.121-10.215 24.66-6.5391 6.5391-15.41 10.215-24.66 10.215h-717.75c-9.25 0-18.121-3.6758-24.66-10.215-6.5391-6.5391-10.215-15.41-10.215-24.66v-96.375c0-6.6992-3.5742-12.887-9.375-16.238-5.8008-3.3477-12.949-3.3477-18.75 0-5.8008 3.3516-9.375 9.5391-9.375 16.238v96.375c0.097656 19.164 7.7539 37.516 21.309 51.066 13.551 13.555 31.902 21.211 51.066 21.309h717.75c19.164-0.097656 37.516-7.7539 51.066-21.309 13.555-13.551 21.211-31.902 21.309-51.066v-771.38c0.0625-4.9727-1.9805-9.7383-5.625-13.125zm-219.38-166.5 160.88 160.88h-160.88z"/>
  <path d="m474.75 664.12h-33v133.88h37.5c19.703 1.3047 39.199-4.707 54.75-16.875 13.145-13.145 19.98-31.324 18.75-49.875-1.125-45-27.75-67.125-78-67.125z"/>
  <path d="m283.88 663.38h-33.75v78.375h37.5c13.406 1.7266 26.938-2.0625 37.5-10.5 8.0938-8.168 12.555-19.254 12.375-30.75 1-11.176-3.8164-22.082-12.75-28.875-12.57-6.5586-26.742-9.418-40.875-8.25z"/>
  <path d="m881.25 858v-253.5c0.10156-16.141-6.2656-31.652-17.684-43.066-11.414-11.418-26.926-17.785-43.066-17.684h-666c-16.141-0.10156-31.652 6.2656-43.066 17.684-11.418 11.414-17.785 26.926-17.684 43.066v253.5c-0.10156 16.141 6.2656 31.652 17.684 43.066 11.414 11.418 26.926 17.785 43.066 17.684h666c16.141 0.10156 31.652-6.2656 43.066-17.684 11.418-11.414 17.785-26.926 17.684-43.066zm-532.5-102.75c-18.84 12.398-41.262 18.199-63.75 16.5h-34.875v57.375h-33v-195.75h67.125c22.98-2.0781 45.961 4.0312 64.875 17.25 14.664 13.34 22.289 32.746 20.625 52.5 1.5664 19.707-6.2109 39.008-21 52.125zm208.88 47.25c-23.5 19.414-53.609 28.957-84 26.625h-64.875v-195.75h67.125c29.188-1.9297 58.012 7.3203 80.625 25.875 19.465 18.281 29.891 44.207 28.5 70.875 1.293 26.875-8.6172 53.082-27.375 72.375zm199.88-138.38h-97.125v54h86.625v31.875h-86.625v80.625h-33v-197.25h130.5z"/>
 </g>
</svg>
