<?xml version="1.0" encoding="UTF-8"?>
<svg width="1200pt" height="1200pt" version="1.1" viewBox="0 0 1200 1200" xmlns="http://www.w3.org/2000/svg">
 <g fill="#fff">
  <path d="m283.98 247.09c-10.133-10.133-26.551-10.133-36.684 0-47.93 47.902-74.379 111.62-74.379 179.41 0 67.766 26.348 131.5 74.277 179.43 5.0664 5.0664 11.703 7.6016 18.344 7.6016 6.6367 0 13.273-2.5352 18.344-7.6016 10.133-10.109 10.133-26.551 0-36.684-38.102-38.125-59.078-88.82-59.078-142.75 0-53.91 21.027-104.6 59.176-142.73 10.133-10.105 10.133-26.547 0-36.68z"/>
  <path d="m1094.6 945.06-355.53-355.68c69.098-132.74 48.062-300.58-63.227-411.92-137.41-137.43-360.95-137.48-498.25-0.10156-137.41 137.33-137.46 360.85-0.10156 498.25 68.703 68.703 158.94 103.05 249.18 103.05 55.938 0 111.88-13.258 162.69-39.664l98.582 98.625c0.003906 0.003906 0.007812 0.007812 0.007812 0.011719 0.003906 0.003906 0.007813 0.007812 0.011719 0.007812l256.91 257.02c20.672 20.672 47.777 30.957 74.887 30.957 27.105 0 54.16-10.285 74.785-30.906 41.246-41.238 41.297-108.37 0.054688-149.66zm-880.43-306.12c-117.09-117.17-117.09-307.77 0.10156-424.89 58.57-58.543 135.48-87.805 212.39-87.805 76.961 0 153.92 29.312 212.49 87.906 117.09 117.17 117.04 307.77-0.10156 424.89-117.19 117.09-307.8 117.09-424.89-0.10156zm420.17 71.699c14.406-10.539 28.391-21.91 41.398-34.914 13.004-13 24.379-26.973 34.926-41.371l71.957 71.988-76.32 76.285zm423.52 347.41c-21.027 21.027-55.277 20.977-76.305-0.050781l-238.58-238.68 76.32-76.285 238.62 238.72c20.977 21.023 20.977 55.277-0.054687 76.301z"/>
 </g>
</svg>
