<?xml version="1.0" encoding="UTF-8"?>
<svg width="1200pt" height="1200pt" version="1.1" viewBox="0 0 1200 1200" xmlns="http://www.w3.org/2000/svg">
 <g fill="#fff">
  <path d="m393.09 786.43c-104.23-0.0625-204.16-41.52-277.83-115.25-73.672-73.73-115.04-173.7-115.02-277.93 0.023437-104.23 41.438-204.18 115.14-277.88 73.699-73.699 173.65-115.11 277.88-115.14 104.23-0.019532 204.2 41.352 277.93 115.02 73.73 73.668 115.19 173.6 115.25 277.83-0.0625 104.3-41.527 204.31-115.28 278.06s-173.76 115.21-278.06 115.28zm0-731.11c-66.863 0-132.23 19.832-187.82 56.984-55.594 37.152-98.918 89.957-124.49 151.74-25.578 61.777-32.258 129.75-19.195 195.33 13.062 65.578 45.281 125.8 92.578 173.07 47.297 47.262 107.55 79.434 173.13 92.449 65.586 13.016 133.55 6.2852 195.32-19.336 61.762-25.621 114.54-68.98 151.65-124.6 37.113-55.617 56.895-120.99 56.848-187.86-0.12891-89.586-35.793-175.46-99.16-238.79-63.371-63.324-149.27-98.922-238.86-98.988z"/>
  <path d="m629.61 668.49 39.117-39.117 109.6 109.6-39.117 39.117z"/>
  <path d="m1051.1 1200-386.27-386.52 148.66-148.66 386.52 386.27zm-308.04-386.52 308.04 307.55 70.676-70.676-308.29-307.31z"/>
 </g>
</svg>
